# xmcd
#
# Track frame offsets: 
#        150
#        15869
#        30762
#        50506
#        65192
#        94830
#        111125
#        133441
#        155099
#        176899
#        193441
#        216396
#        230379
#        257375
#        267893
#
# Disc length: 4108 seconds
#
# Revision: 0
# Processed by: cddbd v1.5.2PL0 Copyright (c) Steve Scherf et al.
# Submitted via: ExactAudioCopyFreeDBPlugin 1.0
#
DISCID=da100a0f
DTITLE=Half Moon Club - Soulsides (Resident Live Soundz)
DYEAR=1900
DGENRE=
TTITLE0=Karen U and Band - Home Is Where The Hatred Is
TTITLE1=Anonymous Groove - The Incredible
TTITLE2=Beatroots - Foundation
TTITLE3=Naildrivers - My Girl's Mad At Me
TTITLE4=Karen U and Band - Use Me Up
TTITLE5=Shades - Shed Skin
TTITLE6=Anonymous Groove - Method To My Madness
TTITLE7=Karen U and Band - When I'm Kissing My Love
TTITLE8=Fusty - Vagueness and Mystery
TTITLE9=Beatroots - Love For You
TTITLE10=Karen U and Band - Four Women
TTITLE11=Metabolix - Marijuana Trauma
TTITLE12=Anonymous Groove - Music Please
TTITLE13=Naildrivers - (I Don't Want To Go To) Chelsea
TTITLE14=Karen U and Band - Nature Boy
EXTD=
EXTT0=
EXTT1=
EXTT2=
EXTT3=
EXTT4=
EXTT5=
EXTT6=
EXTT7=
EXTT8=
EXTT9=
EXTT10=
EXTT11=
EXTT12=
EXTT13=
EXTT14=
PLAYORDER=
